<svg width="36" height="32" viewBox="0 0 36 32" fill="none" xmlns="http://www.w3.org/2000/svg">
<path d="M34.0273 21.8086C34.3789 22.043 34.666 22.3066 34.8887 22.5996C35.1113 22.8809 35.2812 23.1855 35.3984 23.5137C35.5273 23.8418 35.6094 24.1934 35.6445 24.5684C35.6914 24.9316 35.7148 25.3125 35.7148 25.7109C35.7148 26.0156 35.709 26.3145 35.6973 26.6074C35.6855 26.8887 35.6797 27.1758 35.6797 27.4688C35.6797 27.9844 35.5801 28.4707 35.3809 28.9277C35.1816 29.3848 34.9062 29.7832 34.5547 30.123C34.2148 30.4746 33.8164 30.75 33.3594 30.9492C32.9023 31.1602 32.416 31.2656 31.9004 31.2656H4.0918C3.56445 31.2656 3.07227 31.166 2.61523 30.9668C2.1582 30.7676 1.75977 30.4922 1.41992 30.1406C1.08008 29.8008 0.810547 29.4023 0.611328 28.9453C0.412109 28.4883 0.3125 27.9961 0.3125 27.4688C0.3125 27.1758 0.306641 26.8828 0.294922 26.5898C0.283203 26.2969 0.277344 26.0039 0.277344 25.7109C0.277344 25.3125 0.294922 24.9316 0.330078 24.5684C0.376953 24.1934 0.458984 23.8477 0.576172 23.5312C0.705078 23.2031 0.880859 22.8984 1.10352 22.6172C1.32617 22.3242 1.61328 22.0547 1.96484 21.8086L5.74414 6.69141C5.95508 5.84766 6.28906 5.07422 6.74609 4.37109C7.21484 3.66797 7.77148 3.06445 8.41602 2.56055C9.07227 2.04492 9.79883 1.64648 10.5957 1.36523C11.3926 1.08398 12.2246 0.943359 13.0918 0.943359H22.9004C23.7676 0.943359 24.5996 1.08398 25.3965 1.36523C26.1934 1.64648 26.9141 2.04492 27.5586 2.56055C28.2148 3.06445 28.7715 3.66797 29.2285 4.37109C29.6973 5.07422 30.0371 5.84766 30.248 6.69141L34.0273 21.8086ZM31.9004 23.6719L27.8047 7.28906C27.6641 6.72656 27.4355 6.21094 27.1191 5.74219C26.8145 5.27344 26.4453 4.86914 26.0117 4.5293C25.5781 4.18945 25.0918 3.92578 24.5527 3.73828C24.0254 3.55078 23.4746 3.45703 22.9004 3.45703H13.0918C12.5059 3.45703 11.9492 3.55078 11.4219 3.73828C10.8945 3.92578 10.4141 4.18945 9.98047 4.5293C9.54688 4.86914 9.17188 5.27344 8.85547 5.74219C8.55078 6.21094 8.32812 6.72656 8.1875 7.28906L4.0918 23.6719H13.9355C13.9473 23.5898 13.9531 23.5078 13.9531 23.4258C13.9531 23.3438 13.9531 23.2617 13.9531 23.1797C13.9531 22.3945 13.8184 21.6445 13.5488 20.9297C13.291 20.2148 12.9219 19.5703 12.4414 18.9961C11.9727 18.4219 11.4102 17.9414 10.7539 17.5547C10.1094 17.1562 9.40039 16.8867 8.62695 16.7461C9.40039 16.582 10.1094 16.3008 10.7539 15.9023C11.4102 15.5039 11.9727 15.0234 12.4414 14.4609C12.9219 13.8867 13.291 13.248 13.5488 12.5449C13.8184 11.8301 13.9531 11.0742 13.9531 10.2773C13.9531 10.1016 13.9414 9.92578 13.918 9.75C13.9062 9.57422 13.8887 9.39844 13.8652 9.22266C14.4629 9.65625 15.1133 9.99023 15.8164 10.2246C16.5312 10.4473 17.2578 10.5586 17.9961 10.5586C18.7344 10.5586 19.4551 10.4473 20.1582 10.2246C20.873 9.99023 21.5293 9.65625 22.127 9.22266C22.1035 9.39844 22.0801 9.57422 22.0566 9.75C22.0449 9.92578 22.0391 10.1016 22.0391 10.2773C22.0391 11.0625 22.168 11.8125 22.4258 12.5273C22.6953 13.2305 23.0645 13.8691 23.5332 14.4434C24.0137 15.0176 24.5762 15.5039 25.2207 15.9023C25.8652 16.2891 26.5742 16.5586 27.3477 16.7109C26.5742 16.8633 25.8652 17.1387 25.2207 17.5371C24.5762 17.9355 24.0137 18.4219 23.5332 18.9961C23.0645 19.5703 22.6953 20.2148 22.4258 20.9297C22.168 21.6445 22.0391 22.3945 22.0391 23.1797C22.0391 23.2617 22.0391 23.3438 22.0391 23.4258C22.0391 23.5078 22.0449 23.5898 22.0566 23.6719H31.9004Z" fill="#616161"/>
</svg>
          