<svg width="39" height="39" viewBox="0 0 39 39" fill="none" xmlns="http://www.w3.org/2000/svg">
<path d="M19.6484 0.412109C21.3945 0.412109 23.0703 0.640625 24.6758 1.09766C26.293 1.54297 27.8047 2.17578 29.2109 2.99609C30.6172 3.81641 31.8945 4.80664 33.043 5.9668C34.2031 7.11523 35.1934 8.39258 36.0137 9.79883C36.834 11.2051 37.4668 12.7168 37.9121 14.334C38.3691 15.9395 38.5977 17.6152 38.5977 19.3613C38.5977 21.1074 38.3691 22.7891 37.9121 24.4062C37.4668 26.0117 36.834 27.5176 36.0137 28.9238C35.1934 30.3301 34.2031 31.6074 33.043 32.7559C31.8945 33.916 30.6172 34.9062 29.2109 35.7266C27.8047 36.5469 26.293 37.1797 24.6758 37.625C23.0703 38.082 21.3945 38.3105 19.6484 38.3105C17.9023 38.3105 16.2207 38.082 14.6035 37.625C12.998 37.1797 11.4922 36.5469 10.0859 35.7266C8.67969 34.9062 7.39648 33.916 6.23633 32.7559C5.08789 31.6074 4.10352 30.3301 3.2832 28.9238C2.46289 27.5176 1.82422 26.0117 1.36719 24.4062C0.921875 22.7891 0.699219 21.1074 0.699219 19.3613C0.699219 17.6152 0.921875 15.9395 1.36719 14.334C1.82422 12.7168 2.46289 11.2051 3.2832 9.79883C4.10352 8.39258 5.08789 7.11523 6.23633 5.9668C7.39648 4.80664 8.67969 3.81641 10.0859 2.99609C11.4922 2.17578 12.998 1.54297 14.6035 1.09766C16.2207 0.640625 17.9023 0.412109 19.6484 0.412109ZM19.6484 35.7793C21.1602 35.7793 22.6133 35.5801 24.0078 35.1816C25.4141 34.7949 26.7207 34.2441 27.9277 33.5293C29.1465 32.8262 30.2539 31.9766 31.25 30.9805C32.2578 29.9727 33.1133 28.8652 33.8164 27.6582C34.5312 26.4395 35.082 25.1328 35.4688 23.7383C35.8672 22.332 36.0664 20.873 36.0664 19.3613C36.0664 18.2129 35.9492 17.0645 35.7148 15.916C35.457 16.1855 35.1992 16.4434 34.9414 16.6895C34.6836 16.9238 34.4492 17.1699 34.2383 17.4277C34.0391 17.6855 33.875 17.9727 33.7461 18.2891C33.6172 18.5938 33.5527 18.9512 33.5527 19.3613C33.2012 19.3613 32.9023 19.2383 32.6562 18.9922C32.4102 18.7461 32.2871 18.4473 32.2871 18.0957C32.2871 17.7441 32.2168 17.416 32.0762 17.1113C31.9473 16.8066 31.7656 16.543 31.5312 16.3203C31.3086 16.0859 31.0449 15.9043 30.7402 15.7754C30.4355 15.6348 30.1074 15.5645 29.7559 15.5645C29.4277 15.5645 29.1699 15.5 28.9824 15.3711C28.8066 15.2422 28.6426 15.1016 28.4902 14.9492C28.3379 14.7852 28.168 14.6387 27.9805 14.5098C27.8047 14.3809 27.5527 14.3164 27.2246 14.3164C27.2246 14.668 27.3477 14.9668 27.5938 15.2129C27.8516 15.4473 28.1504 15.5645 28.4902 15.5645C28.4902 15.916 28.4199 16.25 28.2793 16.5664C28.1504 16.8711 27.9688 17.1406 27.7344 17.375C27.5117 17.5977 27.248 17.7734 26.9434 17.9023C26.6387 18.0312 26.3105 18.0957 25.959 18.0957C25.959 17.7676 25.918 17.4805 25.8359 17.2344C25.7656 16.9766 25.6602 16.7422 25.5195 16.5312C25.3789 16.3203 25.2148 16.1211 25.0273 15.9336C24.8516 15.7344 24.6582 15.5293 24.4473 15.3184L24.3418 15.2129C24.459 15.4707 24.5469 15.7344 24.6055 16.0039C24.6758 16.2734 24.7109 16.5488 24.7109 16.8301C24.7109 17.1816 24.7754 17.5098 24.9043 17.8145C25.0332 18.1191 25.209 18.3887 25.4316 18.623C25.666 18.8457 25.9355 19.0273 26.2402 19.168C26.5449 19.2969 26.873 19.3613 27.2246 19.3613C26.4512 19.9941 25.8359 20.7441 25.3789 21.6113C24.9336 22.4785 24.7109 23.416 24.7109 24.4238C24.7109 24.7285 24.6406 24.9746 24.5 25.1621C24.3711 25.3379 24.2246 25.5078 24.0605 25.6719C23.9082 25.8242 23.7676 25.9941 23.6387 26.1816C23.5098 26.3691 23.4453 26.6211 23.4453 26.9375C23.4453 27.4648 23.3457 27.957 23.1465 28.4141C22.9473 28.8711 22.6719 29.2754 22.3203 29.627C21.9805 29.9668 21.582 30.2363 21.125 30.4355C20.668 30.6348 20.1758 30.7344 19.6484 30.7344C19.3555 30.7344 19.127 30.6816 18.9629 30.5762C18.7988 30.4707 18.6699 30.3301 18.5762 30.1543C18.4941 29.9785 18.4414 29.7793 18.418 29.5566C18.3945 29.334 18.3828 29.1113 18.3828 28.8887V28.2031C18.3828 27.9102 18.3125 27.6699 18.1719 27.4824C18.043 27.2949 17.8965 27.1191 17.7324 26.9551C17.5801 26.7793 17.4395 26.5977 17.3105 26.4102C17.1816 26.2227 17.1172 25.9766 17.1172 25.6719V23.1582C17.1172 22.8066 17.0527 22.4785 16.9238 22.1738C16.7949 21.8691 16.6133 21.6055 16.3789 21.3828C16.1562 21.1484 15.8926 20.9668 15.5879 20.8379C15.2832 20.6973 14.9551 20.627 14.6035 20.627H12.0723C11.7207 20.627 11.3867 20.5625 11.0703 20.4336C10.7656 20.3047 10.4961 20.1289 10.2617 19.9062C10.0391 19.6719 9.86328 19.4023 9.73438 19.0977C9.60547 18.7812 9.54102 18.4473 9.54102 18.0957C9.54102 17.9434 9.53516 17.791 9.52344 17.6387C9.52344 17.4863 9.52344 17.334 9.52344 17.1816C9.52344 16.8066 9.56445 16.5137 9.64648 16.3027C9.74023 16.0801 9.91602 15.834 10.1738 15.5645C10.1855 15.541 10.1973 15.5293 10.209 15.5293C10.2207 15.5176 10.2324 15.5059 10.2441 15.4941C10.4199 15.3066 10.5547 15.1426 10.6484 15.002C10.7539 14.8496 10.8066 14.6211 10.8066 14.3164C10.8066 13.9648 10.9297 13.666 11.1758 13.4199C11.4219 13.1738 11.7207 13.0508 12.0723 13.0508H13.3379C13.6309 13.0508 13.8711 12.9863 14.0586 12.8574C14.2578 12.7285 14.4395 12.5879 14.6035 12.4355C14.7676 12.2715 14.9434 12.125 15.1309 11.9961C15.3184 11.8555 15.5586 11.7852 15.8516 11.7852H17.1172C17.3398 11.7852 17.4863 11.8555 17.5566 11.9961C17.6387 12.125 17.7031 12.2715 17.75 12.4355C17.7969 12.5879 17.8555 12.7285 17.9258 12.8574C17.9961 12.9863 18.1484 13.0508 18.3828 13.0508H20.9141C21.3828 13.0508 21.834 13.1328 22.2676 13.2969C22.7129 13.4609 23.1055 13.7012 23.4453 14.0176V13.0508C23.4453 12.7578 23.3926 12.5293 23.2871 12.3652C23.1816 12.2012 23.041 12.0781 22.8652 11.9961C22.6895 11.9023 22.4902 11.8437 22.2676 11.8203C22.0449 11.7969 21.8223 11.7852 21.5996 11.7852H20.9141C20.6797 11.7852 20.5273 11.7207 20.457 11.5918C20.3867 11.4629 20.3281 11.3223 20.2812 11.1699C20.2344 11.0059 20.1699 10.8594 20.0879 10.7305C20.0176 10.5898 19.8711 10.5195 19.6484 10.5195C19.4141 10.5195 19.2617 10.5898 19.1914 10.7305C19.1211 10.8594 19.0625 11.0059 19.0156 11.1699C18.9688 11.3223 18.9043 11.4629 18.8223 11.5918C18.752 11.7207 18.6055 11.7852 18.3828 11.7852C18.0781 11.7852 17.832 11.7207 17.6445 11.5918C17.457 11.4629 17.2754 11.3223 17.0996 11.1699C16.9355 11.0059 16.7598 10.8594 16.5723 10.7305C16.3848 10.5898 16.1445 10.5195 15.8516 10.5195C15.5586 10.5195 15.3184 10.5898 15.1309 10.7305C14.9434 10.8594 14.7676 11.0059 14.6035 11.1699C14.4395 11.3223 14.2578 11.4629 14.0586 11.5918C13.8711 11.7207 13.6309 11.7852 13.3379 11.7852C12.9863 11.7852 12.6875 11.6621 12.4414 11.416C12.1953 11.1699 12.0723 10.8711 12.0723 10.5195C12.0723 10.2969 12.1367 10.1504 12.2656 10.0801C12.3945 9.99805 12.5352 9.93359 12.6875 9.88672C12.8516 9.83984 12.998 9.78125 13.127 9.71094C13.2676 9.64062 13.3379 9.48828 13.3379 9.25391C13.3379 9.03125 13.2676 8.88477 13.127 8.81445C12.998 8.73242 12.8516 8.66797 12.6875 8.62109C12.5352 8.57422 12.3945 8.51562 12.2656 8.44531C12.1367 8.375 12.0723 8.22266 12.0723 7.98828C12.0723 7.63672 12.1953 7.33789 12.4414 7.0918C12.6875 6.8457 12.9863 6.72266 13.3379 6.72266C13.5137 6.72266 13.6602 6.78711 13.7773 6.91602C13.9062 7.0332 13.9707 7.17969 13.9707 7.35547C13.9707 7.53125 14.0293 7.68359 14.1465 7.8125C14.2754 7.92969 14.4277 7.98828 14.6035 7.98828C14.8848 7.98828 15.1191 8.05859 15.3066 8.19922C15.4941 8.32812 15.6699 8.47461 15.834 8.63867C16.0098 8.79102 16.1914 8.93164 16.3789 9.06055C16.5664 9.18945 16.8125 9.25391 17.1172 9.25391C17.4219 9.25391 17.668 9.18945 17.8555 9.06055C18.043 8.93164 18.2188 8.79102 18.3828 8.63867C18.5469 8.47461 18.7227 8.32812 18.9102 8.19922C19.0977 8.05859 19.3438 7.98828 19.6484 7.98828C20 7.98828 20.2988 7.86523 20.5449 7.61914C20.791 7.37305 20.9141 7.07422 20.9141 6.72266C20.9141 6.38281 20.7852 6.08984 20.5273 5.84375C20.2812 5.58594 19.9883 5.45703 19.6484 5.45703C19.4727 5.45703 19.3203 5.52148 19.1914 5.65039C19.0742 5.76758 19.0156 5.91406 19.0156 6.08984C19.0156 6.32422 18.9453 6.47656 18.8047 6.54688C18.6758 6.61719 18.5293 6.67578 18.3652 6.72266C18.2129 6.76953 18.0723 6.83398 17.9434 6.91602C17.8145 6.98633 17.75 7.13281 17.75 7.35547C17.75 7.53125 17.6855 7.68359 17.5566 7.8125C17.4395 7.92969 17.293 7.98828 17.1172 7.98828C16.7773 7.98828 16.4785 7.86523 16.2207 7.61914C15.9746 7.36133 15.8516 7.0625 15.8516 6.72266C15.8516 6.38281 15.9746 6.08984 16.2207 5.84375C16.4785 5.58594 16.7773 5.45703 17.1172 5.45703C17.4219 5.45703 17.668 5.39258 17.8555 5.26367C18.043 5.13477 18.2129 4.99414 18.3652 4.8418C18.5293 4.67773 18.7051 4.53125 18.8926 4.40234C19.0801 4.27344 19.332 4.20898 19.6484 4.20898C19.9648 4.20898 20.2168 4.27344 20.4043 4.40234C20.5918 4.53125 20.7676 4.67773 20.9316 4.8418C21.0957 4.99414 21.2656 5.13477 21.4414 5.26367C21.6289 5.39258 21.875 5.45703 22.1797 5.45703C22.5078 5.45703 22.8008 5.41602 23.0586 5.33398C23.3281 5.25195 23.5742 5.14062 23.7969 5C24.0195 4.84766 24.2305 4.67773 24.4297 4.49023C24.6289 4.29102 24.834 4.08008 25.0449 3.85742C24.2012 3.55273 23.3223 3.32422 22.4082 3.17188C21.4941 3.01953 20.5742 2.94336 19.6484 2.94336C18.1367 2.94336 16.6777 3.14258 15.2715 3.54102C13.877 3.92773 12.5703 4.47852 11.3516 5.19336C10.1445 5.89648 9.03711 6.75195 8.0293 7.75977C7.0332 8.75586 6.17773 9.86328 5.46289 11.082C4.75977 12.2891 4.20898 13.5957 3.81055 15.002C3.42383 16.3965 3.23047 17.8496 3.23047 19.3613C3.23047 20.873 3.42383 22.332 3.81055 23.7383C4.20898 25.1328 4.75977 26.4395 5.46289 27.6582C6.17773 28.8652 7.0332 29.9727 8.0293 30.9805C9.03711 31.9766 10.1445 32.8262 11.3516 33.5293C12.5703 34.2441 13.877 34.7949 15.2715 35.1816C16.6777 35.5801 18.1367 35.7793 19.6484 35.7793ZM26.5918 25.6719C26.7676 25.6719 26.9141 25.7363 27.0312 25.8652C27.1602 25.9824 27.2246 26.1289 27.2246 26.3047V27.5703C27.2246 27.7461 27.1602 27.8984 27.0312 28.0273C26.9141 28.1445 26.7676 28.2031 26.5918 28.2031C26.4277 28.2031 26.2812 28.1387 26.1523 28.0098C26.0234 27.8809 25.959 27.7344 25.959 27.5703V26.3047C25.959 26.1406 26.0234 25.9941 26.1523 25.8652C26.2812 25.7363 26.4277 25.6719 26.5918 25.6719Z" fill="#616161"/>
</svg>
