<svg width="16" height="17" viewBox="0 0 16 17" fill="none" xmlns="http://www.w3.org/2000/svg">
<path d="M10.6673 14.5V13.1667C10.6673 12.4594 10.3864 11.7811 9.88627 11.281C9.38617 10.781 8.7079 10.5 8.00065 10.5H4.00065C3.29341 10.5 2.61513 10.781 2.11503 11.281C1.61494 11.7811 1.33398 12.4594 1.33398 13.1667V14.5" stroke="#6B7280" stroke-width="1.33333" stroke-linecap="round" stroke-linejoin="round"/>
<path d="M6.00065 7.83333C7.47341 7.83333 8.66732 6.63943 8.66732 5.16667C8.66732 3.69391 7.47341 2.5 6.00065 2.5C4.52789 2.5 3.33398 3.69391 3.33398 5.16667C3.33398 6.63943 4.52789 7.83333 6.00065 7.83333Z" stroke="#6B7280" stroke-width="1.33333" stroke-linecap="round" stroke-linejoin="round"/>
<path d="M14.666 14.4998V13.1664C14.6656 12.5756 14.4689 12.0016 14.1069 11.5346C13.7449 11.0677 13.2381 10.7341 12.666 10.5864" stroke="#6B7280" stroke-width="1.33333" stroke-linecap="round" stroke-linejoin="round"/>
<path d="M10.666 2.58643C11.2396 2.73329 11.748 3.06689 12.1111 3.53463C12.4742 4.00237 12.6712 4.57765 12.6712 5.16976C12.6712 5.76187 12.4742 6.33715 12.1111 6.80489C11.748 7.27262 11.2396 7.60623 10.666 7.75309" stroke="#6B7280" stroke-width="1.33333" stroke-linecap="round" stroke-linejoin="round"/>
</svg>
