<svg width="43" height="42" viewBox="0 0 43 42" fill="none" xmlns="http://www.w3.org/2000/svg">
<path d="M22.3065 5.21825C21.6697 5.00275 20.9798 5.00275 20.343 5.21825L8.48499 9.2345C8.09876 9.35996 7.75764 9.59561 7.50361 9.91245C7.24958 10.2293 7.09373 10.6135 7.05524 11.0178C6.46549 18.4133 7.48924 23.882 9.91999 28.0137C12.272 32.0125 16.0345 34.9193 21.3247 37.0858C26.6202 34.9193 30.3862 32.0125 32.7382 28.0137C35.1707 23.8837 36.1945 18.4133 35.6047 11.0178C35.5663 10.6135 35.4104 10.2293 35.1564 9.91245C34.9023 9.59561 34.5612 9.35996 34.175 9.2345L22.3065 5.21825ZM19.5012 2.73325C20.6838 2.33236 21.9653 2.33174 23.1482 2.7315L35.0167 6.74775C35.8885 7.03809 36.6563 7.57721 37.2254 8.29866C37.7944 9.0201 38.1399 9.89231 38.2192 10.8078C38.837 18.5253 37.7992 24.5907 35.001 29.3455C32.194 34.1142 27.7192 37.392 21.806 39.7212C21.4967 39.8431 21.1528 39.8431 20.8435 39.7212C14.9355 37.392 10.4625 34.1142 7.65724 29.3455C4.86074 24.5907 3.82299 18.5235 4.43899 10.8078C4.51831 9.89231 4.8638 9.0201 5.43287 8.29866C6.00194 7.57721 6.7697 7.03809 7.64149 6.74775L19.5012 2.73325Z" fill="#616161"/>
<path d="M21.3301 35.0006C30.1361 31.4306 34.2906 25.1691 33.4803 13.3583C33.3893 12.0161 32.4723 10.8803 31.2001 10.4376L22.7651 7.50106C22.3037 7.34042 21.8186 7.2582 21.3301 7.25781V35.0006Z" fill="#616161"/>
</svg>
