<svg width="34" height="41" viewBox="0 0 34 41" fill="none" xmlns="http://www.w3.org/2000/svg">
<path d="M30.8828 18.0586C31.2578 18.1641 31.5977 18.3398 31.9023 18.5859C32.2188 18.832 32.4883 19.1191 32.7109 19.4473C32.9336 19.7637 33.1035 20.1094 33.2207 20.4844C33.3496 20.8594 33.4141 21.2402 33.4141 21.627V36.7793C33.4141 37.2949 33.3145 37.7812 33.1152 38.2383C32.916 38.707 32.6406 39.1113 32.2891 39.4512C31.9492 39.8027 31.5449 40.0781 31.0762 40.2773C30.6191 40.4766 30.1328 40.5762 29.6172 40.5762H4.35742C3.83008 40.5762 3.33789 40.4766 2.88086 40.2773C2.42383 40.0781 2.01953 39.8027 1.66797 39.4512C1.32812 39.1113 1.05859 38.7129 0.859375 38.2559C0.660156 37.7988 0.560547 37.3066 0.560547 36.7793V21.627C0.560547 21.2285 0.619141 20.8418 0.736328 20.4668C0.853516 20.0918 1.02344 19.752 1.24609 19.4473C1.46875 19.1426 1.73242 18.873 2.03711 18.6387C2.35352 18.3926 2.69922 18.1992 3.07422 18.0586V14.0508C3.07422 12.7734 3.23828 11.543 3.56641 10.3594C3.90625 9.17578 4.375 8.06836 4.97266 7.03711C5.58203 6.00586 6.30859 5.06836 7.15234 4.22461C8.00781 3.38086 8.94531 2.66016 9.96484 2.0625C10.9961 1.45312 12.1035 0.984375 13.2871 0.65625C14.4707 0.316406 15.7012 0.146484 16.9785 0.146484C18.2559 0.146484 19.4863 0.316406 20.6699 0.65625C21.8535 0.984375 22.9609 1.45312 23.9922 2.0625C25.0234 2.66016 25.9609 3.38086 26.8047 4.22461C27.6484 5.06836 28.3691 6.00586 28.9668 7.03711C29.5762 8.06836 30.0449 9.17578 30.373 10.3594C30.7129 11.543 30.8828 12.7734 30.8828 14.0508V18.0586ZM29.6172 38.0449C29.957 38.0449 30.25 37.916 30.4961 37.6582C30.7539 37.4121 30.8828 37.1191 30.8828 36.7793V21.627C30.8828 21.2871 30.7539 20.9941 30.4961 20.748C30.25 20.4902 29.957 20.3613 29.6172 20.3613H4.35742C4.1582 20.3613 3.97656 20.4023 3.8125 20.4844C3.66016 20.5664 3.51367 20.6777 3.37305 20.8184C3.2793 20.9355 3.20898 21.0645 3.16211 21.2051C3.11523 21.3457 3.0918 21.4863 3.0918 21.627V36.9199C3.0918 36.9551 3.10352 37.0078 3.12695 37.0781C3.12695 37.1719 3.15039 37.2598 3.19727 37.3418C3.25586 37.4355 3.31445 37.5117 3.37305 37.5703C3.51367 37.7227 3.66016 37.8398 3.8125 37.9219C3.97656 38.0039 4.1582 38.0449 4.35742 38.0449H29.6172ZM16.9785 2.67773C15.9238 2.67773 14.9102 2.8125 13.9375 3.08203C12.9766 3.35156 12.0742 3.73242 11.2305 4.22461C10.3867 4.7168 9.61914 5.30859 8.92773 6C8.23633 6.69141 7.64453 7.45898 7.15234 8.30273C6.66016 9.14648 6.2793 10.0547 6.00977 11.0273C5.74023 12 5.60547 13.0078 5.60547 14.0508V19.0957H8.13672V14.0508C8.13672 12.832 8.36523 11.6895 8.82227 10.623C9.29102 9.54492 9.92383 8.60742 10.7207 7.81055C11.5293 7.00195 12.4668 6.36914 13.5332 5.91211C14.6113 5.44336 15.7598 5.20898 16.9785 5.20898C18.1973 5.20898 19.3398 5.44336 20.4062 5.91211C21.4844 6.36914 22.4219 7.00195 23.2188 7.81055C24.0273 8.60742 24.6602 9.54492 25.1172 10.623C25.5859 11.6895 25.8203 12.832 25.8203 14.0508V19.0957H28.3516V14.0508C28.3516 13.0078 28.2168 12 27.9473 11.0273C27.6777 10.0547 27.291 9.15234 26.7871 8.32031C26.2949 7.47656 25.7031 6.70898 25.0117 6.01758C24.3203 5.32617 23.5527 4.73438 22.709 4.24219C21.877 3.73828 20.9746 3.35156 20.002 3.08203C19.0293 2.8125 18.0215 2.67773 16.9785 2.67773Z" fill="#616161"/>
</svg>
