<svg width="41" height="41" viewBox="0 0 41 41" fill="none" xmlns="http://www.w3.org/2000/svg">
<path d="M29.5078 7.72266H40.8809V9.11133C40.8809 9.84961 40.8516 10.5879 40.793 11.3262C40.7344 12.0645 40.6055 12.791 40.4062 13.5059C40.0664 14.7012 39.5391 15.7969 38.8242 16.793C38.1094 17.7773 37.2656 18.6328 36.293 19.3594C35.3203 20.0742 34.2539 20.6309 33.0938 21.0293C31.9336 21.4277 30.7383 21.627 29.5078 21.627H24.4629V23.0684L24.8848 23.4551C25.5176 24.0645 26.1152 24.6562 26.6777 25.2305C27.2402 25.8047 27.7266 26.4141 28.1367 27.0586C28.5469 27.6914 28.8691 28.3887 29.1035 29.1504C29.3496 29.9121 29.4727 30.7852 29.4727 31.7695C29.4727 32.9883 29.2441 34.1309 28.7871 35.1973C28.3301 36.2754 27.7031 37.2129 26.9062 38.0098C26.1094 38.8066 25.1719 39.4336 24.0938 39.8906C23.0273 40.3477 21.8848 40.5762 20.666 40.5762C19.4473 40.5762 18.2988 40.3418 17.2207 39.873C16.1543 39.416 15.2227 38.7891 14.4258 37.9922C13.6289 37.1953 12.9961 36.2578 12.5273 35.1797C12.0703 34.1133 11.8418 32.9707 11.8418 31.752C11.8418 30.5684 12.0645 29.4375 12.5098 28.3594C12.9551 27.2812 13.5879 26.3203 14.4082 25.4766C14.8066 25.0664 15.2109 24.668 15.6211 24.2812C16.043 23.8828 16.459 23.4785 16.8691 23.0684V14.0508H11.8242C10.2539 14.0508 8.77734 13.752 7.39453 13.1543C6.02344 12.5566 4.82227 11.7422 3.79102 10.7109C2.75977 9.67969 1.94531 8.47852 1.34766 7.10742C0.75 5.72461 0.451172 4.24805 0.451172 2.67773V0.146484H10.5586C12.0117 0.146484 13.418 0.369141 14.7773 0.814453C16.1484 1.25977 17.4023 1.88672 18.5391 2.69531C19.6875 3.50391 20.7012 4.47656 21.5801 5.61328C22.459 6.73828 23.1445 7.98633 23.6367 9.35742C24.5156 8.81836 25.4531 8.41406 26.4492 8.14453C27.457 7.86328 28.4766 7.72266 29.5078 7.72266ZM35.291 16.9336C35.5137 16.7812 35.707 16.6055 35.8711 16.4062C36.0469 16.207 36.2168 16.0078 36.3809 15.8086C37.0254 15.0117 37.5117 14.1445 37.8398 13.207C38.1797 12.2695 38.3496 11.2852 38.3496 10.2539H29.5078C28.7695 10.2539 28.0254 10.3535 27.2754 10.5527C26.5371 10.752 25.8281 11.0391 25.1484 11.4141C24.4688 11.7891 23.8477 12.2461 23.2852 12.7852C22.7344 13.3125 22.2832 13.9043 21.9316 14.5605C21.9199 13.4707 21.8086 12.4277 21.5977 11.4316C21.3867 10.4355 21.0176 9.45703 20.4902 8.49609C20.0098 7.60547 19.4121 6.80273 18.6973 6.08789C17.9824 5.36133 17.1855 4.74609 16.3066 4.24219C15.4395 3.73828 14.5137 3.35156 13.5293 3.08203C12.5566 2.8125 11.5664 2.67773 10.5586 2.67773H2.98242C2.98242 3.89648 3.21094 5.04492 3.66797 6.12305C4.13672 7.20117 4.76953 8.13867 5.56641 8.93555C6.36328 9.73242 7.30078 10.3652 8.37891 10.834C9.45703 11.291 10.6055 11.5195 11.8242 11.5195H16.8691C17.3027 11.5195 17.707 11.6191 18.082 11.8184C18.4922 12.0293 18.8145 12.3457 19.0488 12.7676C19.2832 13.1777 19.4004 13.6055 19.4004 14.0508V24.123C19.4004 24.873 19.3945 25.623 19.3828 26.373C19.3828 27.1113 19.3828 27.8555 19.3828 28.6055C19.3828 29.168 19.3828 29.7305 19.3828 30.293C19.3945 30.8555 19.4062 31.418 19.418 31.9805C19.4297 32.1211 19.4766 32.2559 19.5586 32.3848C19.6523 32.502 19.7578 32.6074 19.875 32.7012C20.0039 32.7949 20.1328 32.8711 20.2617 32.9297C20.4023 32.9766 20.5371 33 20.666 33C21.041 33 21.3574 32.8594 21.6152 32.5781C21.8262 32.332 21.9316 32.0508 21.9316 31.7344V19.0957H29.5078C30.1406 19.0957 30.7617 19.0371 31.3711 18.9199C31.9922 18.791 32.5898 18.5918 33.1641 18.3223C33.293 18.2637 33.457 18.1816 33.6562 18.0762C33.8672 17.959 34.0781 17.8359 34.2891 17.707C34.5 17.5664 34.6992 17.4316 34.8867 17.3027C35.0742 17.1621 35.209 17.0391 35.291 16.9336ZM20.666 38.0449C21.5332 38.0449 22.3477 37.8809 23.1094 37.5527C23.8711 37.2246 24.5391 36.7734 25.1133 36.1992C25.6875 35.6367 26.1387 34.9746 26.4668 34.2129C26.7949 33.4512 26.959 32.6367 26.959 31.7695C26.959 31.0664 26.8477 30.3984 26.625 29.7656C26.4141 29.1211 26.1035 28.5176 25.6934 27.9551L23.1973 30.4688C23.1973 30.6094 23.1973 30.75 23.1973 30.8906C23.209 31.0312 23.2148 31.1719 23.2148 31.3125C23.2148 31.7109 23.1621 32.0918 23.0566 32.4551C22.9512 32.8066 22.793 33.1172 22.582 33.3867C22.3711 33.6562 22.1016 33.8672 21.7734 34.0195C21.457 34.1836 21.0879 34.2656 20.666 34.2656C20.3145 34.2656 19.9863 34.1953 19.6816 34.0547C19.377 33.9258 19.1074 33.7441 18.873 33.5098C18.6504 33.2871 18.4688 33.0234 18.3281 32.7188C18.1992 32.4141 18.1348 32.0859 18.1348 31.7344V30.4688L15.6387 27.9551C15.2285 28.5176 14.9121 29.1211 14.6895 29.7656C14.4785 30.3984 14.373 31.0664 14.373 31.7695C14.373 32.6367 14.5371 33.4512 14.8652 34.2129C15.1934 34.9746 15.6445 35.6367 16.2188 36.1992C16.793 36.7734 17.4609 37.2246 18.2227 37.5527C18.9844 37.8809 19.7988 38.0449 20.666 38.0449ZM33.3047 12.7852C33.6445 12.7852 33.9375 12.9141 34.1836 13.1719C34.4414 13.418 34.5703 13.7109 34.5703 14.0508C34.5703 14.3906 34.4414 14.6895 34.1836 14.9473C33.9375 15.1934 33.6445 15.3164 33.3047 15.3164H26.9766C26.6367 15.3164 26.3379 15.1934 26.0801 14.9473C25.834 14.6895 25.7109 14.3906 25.7109 14.0508C25.7109 13.7109 25.834 13.418 26.0801 13.1719C26.3379 12.9141 26.6367 12.7852 26.9766 12.7852H33.3047ZM14.3555 5.20898C14.6953 5.20898 14.9883 5.33203 15.2344 5.57812C15.4805 5.82422 15.6035 6.11719 15.6035 6.45703C15.6035 6.79687 15.4805 7.0957 15.2344 7.35352C14.9883 7.59961 14.6953 7.72266 14.3555 7.72266H8.02734C7.67578 7.72266 7.37695 7.59961 7.13086 7.35352C6.88477 7.10742 6.76172 6.80859 6.76172 6.45703C6.76172 6.11719 6.88477 5.82422 7.13086 5.57812C7.38867 5.33203 7.6875 5.20898 8.02734 5.20898H14.3555Z" fill="#616161"/>
</svg>
